<?xml version="1.0" encoding="UTF-8"?>
<svg xmlns="http://www.w3.org/2000/svg" id="Layer_1" data-name="Layer 1" viewBox="0 0 512 512" width="512" height="512"><path d="M256,0C114.841,0,0,114.841,0,256S114.841,512,256,512,512,397.159,512,256,397.159,0,256,0ZM32,256a223.492,223.492,0,0,1,7.868-58.88h79.585a476.089,476.089,0,0,0,0,117.76H39.868A223.492,223.492,0,0,1,32,256Zm115.8,0a438.984,438.984,0,0,1,3.908-58.88H240V314.88H151.706A438.984,438.984,0,0,1,147.8,256ZM272,34.724c20.983,7.072,41.33,27.726,57.544,59.059,10.775,20.821,19.208,45,25.061,71.337H272Zm-32,0v130.4H157.4c5.853-26.336,14.286-50.516,25.061-71.337C198.671,62.45,219.017,41.8,240,34.724Zm0,312.156v130.4c-20.983-7.072-41.329-27.726-57.544-59.059-10.775-20.821-19.208-45-25.061-71.337Zm32,130.4V346.88h82.605c-5.853,26.336-14.286,50.516-25.061,71.337C313.33,449.55,292.983,470.2,272,477.276Zm0-162.4V197.12h88.294A438.984,438.984,0,0,1,364.2,256a438.984,438.984,0,0,1-3.908,58.88ZM392.548,197.12h79.584a224.248,224.248,0,0,1,0,117.76H392.548A471.238,471.238,0,0,0,396.2,256,471.238,471.238,0,0,0,392.548,197.12Zm68.169-32H387.3c-6.476-31.755-16.371-61-29.332-86.044a215.821,215.821,0,0,0-19.64-31.4A225.3,225.3,0,0,1,460.717,165.12ZM173.677,47.672a215.823,215.823,0,0,0-19.641,31.4c-12.961,25.045-22.856,54.289-29.332,86.044H51.283A225.3,225.3,0,0,1,173.677,47.672ZM51.283,346.88H124.7c6.476,31.755,16.371,61,29.332,86.044a215.823,215.823,0,0,0,19.641,31.4A225.3,225.3,0,0,1,51.283,346.88ZM338.324,464.328a215.821,215.821,0,0,0,19.64-31.4c12.961-25.045,22.856-54.289,29.332-86.044h73.421A225.3,225.3,0,0,1,338.324,464.328Z"/></svg>
