<svg id="Layer_1" enableBackground="new 0 0 512 512" viewBox="0 0 512 512" xmlns="http://www.w3.org/2000/svg"><g id="Layer_2_00000128484105055974705960000016628376150037594510_"><g id="delete_right"><path d="m501.5 233.5c-44.3-44.3-88.7-88.4-133.3-132.4-10.7-10.6-23.9-15.6-39-15.6-89.9 0-179.9.1-269.8.1-33.9 0-58.7 23.5-58.9 57.6-.6 75.1-.6 150.3 0 225.4.2 34.6 24.9 57.9 59.7 57.9 44.8.1 89.6.1 134.4 0 44.4 0 88.8-.1 133.2.1 16 .1 29.8-5 41.1-16.2 44.2-43.8 88.4-87.7 132.5-131.6 14.1-14.3 14.2-31.1.1-45.3zm-230.5 63.3c8.5 8.8 8.3 22.9-.5 31.4-8.6 8.4-22.3 8.4-30.9 0l-40.7-40.7-40.7 40.7c-8.7 8.7-22.7 8.7-31.4 0s-8.7-22.7 0-31.4l40.7-40.7-40.7-40.7c-8.7-8.7-8.7-22.7 0-31.4s22.7-8.7 31.4 0l40.7 40.7 40.7-40.7c8.7-8.7 22.7-8.7 31.4 0s8.7 22.7 0 31.4l-40.7 40.7z"/></g></g></svg>